# xmcd CD database file
#
# Track frame offsets:
#	150
#	15514
#	26908
#	46057
#
# Disc length: 803 seconds
#
# Revision: 2
# Processed by: cddbd v1.4PL0 Copyright (c) Steve Scherf et al.
# Submitted via: Feurio! 1.66 - http://www.feurio.com
#
DISCID=25032104
DTITLE=Die Schoenen - Die Erste
DYEAR=1900
DGENRE=
TTITLE0=Barbara - Göttingen
TTITLE1=Jean Constantin/Norbert Glanzberg - Mon manège à moi
TTITLE2=Jean-Jacques Goldman - Je crois toi
TTITLE3=Manfred Krug - Wenn ich dich seh'
EXTD=
EXTT0=
EXTT1=
EXTT2=
EXTT3=
PLAYORDER=
